<svg version="1.2" xmlns="http://www.w3.org/2000/svg" viewBox="0 0 400 400" width="400" height="400"><style>.a{fill:#f4931a}</style><path fill-rule="evenodd" class="a" d="m201.2 0.6l126.7 0.1 3 1.5c4.5 2.3 8 6.6 9 11.1 0.6 2.4 0.8 368.1 0.3 372.2-1.1 8.4-6.8 13.2-15.6 13.2-7.4 0-8.2-0.6-24.5-16.2-3.8-3.6-12.6-11.4-20.4-18.2-2.4-2.1-4.8-4.2-5.4-4.7-0.5-0.5-2.7-2.5-4.8-4.4q-1-0.9-2-1.8-1.1-0.9-2.1-1.8-1-0.9-1.9-1.9-1-0.9-2-1.8c-5.2-5-9-8.5-12.9-11.9-5-4.3-11-9.6-11.4-10.1-0.3-0.3-2.9-2.6-5.7-5.2-2.9-2.6-6.2-5.6-7.3-6.6-13.4-12.3-29.8-13.4-44.2-3-1.5 1.2-6.4 5.4-11 9.8q-0.3 0.2-0.5 0.5-0.3 0.2-0.6 0.4-0.3 0.3-0.6 0.5-0.2 0.3-0.5 0.5-0.4 0.3-0.8 0.7-0.5 0.3-0.9 0.7-0.4 0.4-0.8 0.7-0.4 0.4-0.8 0.7c-1 0.9-4.1 3.8-7 6.4-2.9 2.7-7.8 7.3-11 10.4-3.1 3-6.8 6.6-8.3 7.9-1.4 1.3-3 2.8-3.5 3.3-0.5 0.5-2.8 2.6-5 4.6q-0.9 0.8-1.8 1.5-0.9 0.8-1.8 1.6-0.9 0.8-1.7 1.6-0.9 0.8-1.8 1.6c-1.6 1.4-4.3 3.9-6.1 5.4-5.4 4.7-9.3 8.1-20.4 18.5-8.1 7.6-11.2 9.8-14.4 10.5-8 1.8-15.8-2.2-19.4-10-1.2-2.4-1.5-372.2-0.3-376.4 1.6-5.9 6-10.2 12.1-11.6 0.8-0.2 58.4-0.3 128.1-0.3zm-6.9 134.6c-1.9 1.3-22 18.7-23.3 20.2-0.3 0.2-1.9 1.6-3.5 3.1-1.7 1.4-3.4 2.9-3.8 3.3-0.6 0.7-7.9 7.2-14 12.7-12.2 10.7-15.4 14.1-16.1 17.4-0.6 2.9-0.4 51.8 0.2 53.6 2.5 6.8 11.7 8.6 17.9 3.4 1.3-1 4.8-3.9 7.8-6.4 5.5-4.5 10.6-8.9 16.9-14.5q0.9-0.8 1.7-1.5 0.9-0.8 1.7-1.5 0.9-0.8 1.7-1.5 0.9-0.8 1.7-1.5c2-1.7 3.8-3.3 4.2-3.7 8.9-8.4 14.3-9.2 21.5-3.1 2.6 2.2 15 13.2 15.3 13.6 0.1 0.1 1.5 1.3 3.1 2.7 1.6 1.3 3 2.6 3.3 2.8 0.3 0.2 1.6 1.4 3.1 2.6 1.4 1.2 3.9 3.4 5.6 4.9q0.7 0.5 1.4 1.1 0.7 0.6 1.4 1.2 0.6 0.5 1.3 1.1 0.7 0.6 1.4 1.2c1.3 1 3 2.5 3.7 3.1 5.7 5.2 14.4 4 17.8-2.5 1.3-2.7 1.6-52.1 0.3-55.7-1.5-3.7-3.5-5.9-11.5-12.5-4.6-3.9-18-15.8-22.1-19.7-0.4-0.4-2.1-1.9-3.8-3.3q-0.7-0.6-1.5-1.2-0.7-0.6-1.4-1.3-0.8-0.6-1.5-1.3-0.7-0.6-1.5-1.2c-1.5-1.4-4-3.6-5.4-4.8q-0.8-0.7-1.6-1.4-0.8-0.7-1.5-1.4-0.8-0.7-1.6-1.4-0.7-0.7-1.5-1.4c-4.8-4.5-4.6-4.3-6.5-5.3-3.2-1.6-8.5-1.6-10.9 0.1z"/></svg>